inDegrees=yes
name=ik_S57_A07_T01
DataType=double
version=3
OpenSimVersion=4.3-2021-08-27-4bc7ad9
endheader
time	pelvis_tilt	pelvis_list	pelvis_rotation	pelvis_tx	pelvis_ty	pelvis_tz	hip_flexion_r	hip_adduction_r	hip_rotation_r	knee_angle_r	knee_angle_r_beta	ankle_angle_r	subtalar_angle_r	mtp_angle_r	hip_flexion_l	hip_adduction_l	hip_rotation_l	knee_angle_l	knee_angle_l_beta	ankle_angle_l	subtalar_angle_l	mtp_angle_l	lumbar_extension	lumbar_bending	lumbar_rotation	arm_flex_r	arm_add_r	arm_rot_r	elbow_flex_r	pro_sup_r	wrist_flex_r	wrist_dev_r	arm_flex_l	arm_add_l	arm_rot_l	elbow_flex_l	pro_sup_l	wrist_flex_l	wrist_dev_l
0	0	0	0	0	0.9399999999999999	0	0	0	0	0	0	0	0	0	0	0	0	0	0	0	0	0	0	0	0	0	0	0	0	89.99999999963507	0	0	0	0	0	0	89.99999999869995	0	0
0.02	-6.123535567473556	-2.553277817288033	23.11601092248754	0	0.9399999999999999	0	4.215922041390362	-1.954726114346443	-1.417387206521904	6.481953041426411	0.1131314225325513	0	0	0	4.215922041390362	-1.954726114346443	-1.417387206521904	6.481953041426411	0.1131314225325513	0	0	0	-5.085721082125922	-2.681231276699256	3.17210606692161	13.7790545974856	-1.986734765434353	3.219935848499148	53.11632472720849	135.4928905813363	0	0	13.74271190000309	-8.592614102658501	12.42500880368478	47.58773066474067	130.4487999382003	0	0
0.04	-6.066292920043566	-2.608706680445215	23.22620996240436	0	0.9399999999999999	0	11.43428500852601	-5.432394583811567	-3.761067426412477	16.47940878149279	0.287619942019116	0	0	0	11.43428500852601	-5.432394583811567	-3.761067426412477	16.47940878149279	0.287619942019116	0	0	0	-5.13091704758545	-2.577388050904649	3.092556722279584	13.80875309114162	-2.028668448807347	3.202041018326765	53.11641534357042	135.4428592501785	0	0	13.74281678657	-8.601534980745944	12.46482518065692	47.60246395185974	130.4464087191217	0	0
0.06	-6.045944391966485	-2.615335708762873	23.27415365592859	0	0.9399999999999999	0	11.69813508067385	-5.516757961943839	-3.848438869199676	16.70666064640764	0.2915862352931775	0	0	0	11.69813508067385	-5.516757961943839	-3.848438869199676	16.70666064640764	0.2915862352931775	0	0	0	-5.12231747238159	-2.579254205989511	3.097084844359854	13.76183440325811	-2.021108418907503	3.165458307582014	53.1902414020869	135.3377663582767	0	0	13.71747370785861	-8.646622258699029	12.55135612747497	47.66780964333195	130.3816158117153	0	0
0.08	-6.049485988579743	-2.613426380624028	23.2806763534263	0	0.9399999999999999	0	11.71447439905635	-5.525431588049549	-3.854905287665531	16.72184559257224	0.2918512626004879	0	0	0	11.71447439905635	-5.525431588049549	-3.854905287665531	16.72184559257224	0.2918512626004879	0	0	0	-5.124677227395181	-2.577047258581759	3.110270131696691	13.76234887263687	-1.995589609945003	3.121846497720311	53.13814913064412	135.429123754543	0	0	13.72807260183357	-8.628615950204953	12.57414611038972	47.59763300644172	130.4598811253128	0	0
0.1	-6.046696499394305	-2.613268968996901	23.29682676559534	0	0.9399999999999999	0	11.92194481587107	-5.606275139367765	-3.929363451961904	16.90229149618044	0.2950006377401873	0	0	0	11.92194481587107	-5.606275139367765	-3.929363451961904	16.90229149618044	0.2950006377401873	0	0	0	-5.127525015417349	-2.568971344480322	3.110981940446986	13.76442271464133	-2.002721999967763	3.099177532080573	53.13690257253445	135.4237661597487	0	0	13.72040197015164	-8.636451384304339	12.58816566614936	47.5932938229123	130.4710201649458	0	0
0.12	-6.054181072273555	-2.608073928731061	23.27945266929743	0	0.9399999999999999	0	12.14573558203058	-5.688777419908122	-4.007681454645493	17.09706964443167	0.2984001577381088	0	0	0	12.14573558203058	-5.688777419908122	-4.007681454645493	17.09706964443167	0.2984001577381088	0	0	0	-5.139549101643207	-2.548562893197525	3.096190456912789	13.77565599040921	-2.02007151599109	3.125367792759811	53.15397390317216	135.4085644277634	0	0	13.73415487623888	-8.637249717344613	12.59061776526797	47.58597008091328	130.4452762960861	0	0
0.14	-6.05420480450915	-2.611939217589304	23.27544873961709	0	0.9399999999999999	0	12.33426910466097	-5.758426676086017	-4.073986621533565	17.26013637303473	0.3012462090526882	0	0	0	12.33426910466097	-5.758426676086017	-4.073986621533565	17.26013637303473	0.3012462090526882	0	0	0	-5.147027237922186	-2.542030877244294	3.090698480181486	13.77604338066088	-1.994468484772649	3.119422072411378	53.16540139722471	135.4037842772361	0	0	13.73482427477729	-8.648543545580655	12.60181701539188	47.59653992394729	130.4401258669542	0	0
0.16	-6.055968443195281	-2.615090010472843	23.29111447807452	0	0.9399999999999999	0	12.51868399439875	-5.823704880708812	-4.13816840171522	17.4172326714968	0.3039880567035471	0	0	0	12.51868399439875	-5.823704880708812	-4.13816840171522	17.4172326714968	0.3039880567035471	0	0	0	-5.155125214178725	-2.535772113197955	3.097026895033614	13.7872648038575	-1.979277756602308	3.079148125235622	53.13726962012828	135.4414321976605	0	0	13.76181120834913	-8.642457577115477	12.62996387453161	47.56896486243655	130.491366557047	0	0
0.18	-6.05463309899314	-2.608929324292749	23.29141579615938	0	0.9399999999999999	0	12.71247462866967	-5.896797844709331	-4.206537035001602	17.58701664920816	0.306951346131743	0	0	0	12.71247462866967	-5.896797844709331	-4.206537035001602	17.58701664920816	0.306951346131743	0	0	0	-5.157040015346	-2.520725180862148	3.088397401489996	13.77209284023407	-1.992047193622852	3.102367956789668	53.16489427541805	135.4080869514814	0	0	13.76277519303728	-8.642814320508977	12.62069491504887	47.57763751909351	130.4836737535904	0	0
0.2	-6.057407299121016	-2.604526247579874	23.28525928033013	0	0.9399999999999999	0	12.93308527111121	-5.975460642165193	-4.281775289901435	17.78319374794613	0.3103752824217305	0	0	0	12.93308527111121	-5.975460642165193	-4.281775289901435	17.78319374794613	0.3103752824217305	0	0	0	-5.163636233766267	-2.504628804250311	3.078779844318561	13.79032578501045	-2.014439726760268	3.121259155815288	53.210819262349	135.2822230643141	0	0	13.77118072540869	-8.645009139012693	12.60809152999972	47.61462196303277	130.3986746260906	0	0
0.22	-6.023842163521831	-2.609319283600759	23.31873220277222	0	0.9399999999999999	0	13.9777427651201	-6.289882572974274	-4.606359006809901	18.74946943651355	0.3272399746692073	0	0	0	13.9777427651201	-6.289882572974274	-4.606359006809901	18.74946943651355	0.3272399746692073	0	0	0	-5.155058143192474	-2.471476109617852	3.072537668342205	13.77995412197648	-1.992260933782306	3.070338271773255	53.13143859329045	135.3225090132843	0	0	13.73129036884188	-8.614043991771995	12.62364304884539	47.55139241842193	130.4763391199369	0	0
